<svg width="24" height="24" viewBox="0 0 24 24" fill="none" xmlns="http://www.w3.org/2000/svg">
<path fill-rule="evenodd" clip-rule="evenodd" d="M16.1876 4.0529L15.0565 4.32413L14.4485 3.33256C13.288 1.43993 10.5381 1.43993 9.37763 3.33256L8.76964 4.32413L7.63858 4.0529C5.47968 3.53521 3.53521 5.47968 4.0529 7.63858L4.32413 8.76964L3.33256 9.37763C1.43993 10.5381 1.43993 13.288 3.33256 14.4485L4.32413 15.0565L4.0529 16.1876C3.53521 18.3465 5.47968 20.291 7.63858 19.7733L8.76964 19.502L9.37763 20.4936C10.5381 22.3862 13.288 22.3862 14.4485 20.4936L15.0565 19.502L16.1876 19.7733C18.3465 20.291 20.291 18.3465 19.7733 16.1876L19.502 15.0565L20.4936 14.4485C22.3862 13.288 22.3862 10.5381 20.4936 9.37763L19.502 8.76964L19.7733 7.63858C20.291 5.47968 18.3465 3.53521 16.1876 4.0529ZM11.0679 4.369C11.4548 3.73813 12.3714 3.73813 12.7582 4.369L13.7425 5.97426C13.9669 6.34024 14.4014 6.5202 14.8189 6.42009L16.6499 5.981C17.3696 5.80844 18.0177 6.45659 17.8452 7.17623L17.4061 9.00732C17.306 9.42478 17.4859 9.85924 17.8519 10.0836L19.4572 11.0679C20.088 11.4548 20.088 12.3714 19.4572 12.7582L17.8519 13.7425C17.4859 13.9669 17.306 14.4014 17.4061 14.8189L17.8452 16.6499C18.0177 17.3696 17.3696 18.0177 16.6499 17.8452L14.8189 17.4061C14.4014 17.306 13.9669 17.4859 13.7425 17.8519L12.7582 19.4572C12.3714 20.088 11.4548 20.088 11.0679 19.4572L10.0836 17.8519C9.85924 17.4859 9.42478 17.306 9.00731 17.4061L7.17623 17.8452C6.45659 18.0177 5.80844 17.3696 5.981 16.6499L6.42009 14.8189C6.5202 14.4014 6.34024 13.9669 5.97426 13.7425L4.369 12.7582C3.73813 12.3714 3.73813 11.4548 4.369 11.0679L5.97426 10.0836C6.34024 9.85924 6.5202 9.42478 6.42009 9.00732L5.981 7.17623C5.80844 6.45659 6.45659 5.80844 7.17623 5.981L9.00732 6.42009C9.42478 6.5202 9.85924 6.34024 10.0836 5.97426L11.0679 4.369Z" fill="#1D1D1B"/>
<circle cx="12" cy="12" r="2" stroke="#1D1D1B" stroke-width="1.5"/>
</svg>
