<?xml version="1.0" encoding="utf-8"?>
<!DOCTYPE svg PUBLIC "-//W3C//DTD SVG 1.1//EN" "http://www.w3.org/Graphics/SVG/1.1/DTD/svg11.dtd">
<svg version="1.1" xmlns="http://www.w3.org/2000/svg" xmlns:xlink="http://www.w3.org/1999/xlink" x="0px" y="0px" viewBox="0 0 1000 1000" enable-background="new 0 0 1000 1000" xml:space="preserve" fill="white">
<g><path d="M47.8,827.2V129.3c0-14.3,11.3-25.8,25.2-25.8h554.6c13.9,0,25.2,11.6,25.2,25.8v218.3h37.8V129.3c0-35.7-28.2-64.6-63-64.6H73c-34.8,0-63,28.9-63,64.6v697.9c0,35.7,28.2,64.6,63,64.6h198.2V853H73C59.1,853,47.8,841.4,47.8,827.2z M211.7,646.3h151.2v-38.8H211.7V646.3z M488.9,452.4H211.7v38.8h277.3V452.4z M488.9,310.2H211.7V349h277.3V310.2z M990,608.8l-299-196v98.1c0,0-354.6-26.1-354.6,424.4c0,0,49.4-228.5,354.6-228.5v98.1L990,608.8z M380.1,826.5c15.1-298.7,344.1-283,344.1-283v-65.4l199.2,130.7L724.2,739.5v-65.4C418.9,674.1,380.1,826.5,380.1,826.5z"/></g>
</svg>