<svg width="18" height="25" viewBox="0 0 18 25" fill="none" xmlns="http://www.w3.org/2000/svg">
<path d="M16.6309 23.9998H0.999999L1 2.96826V2.96826H16.6309V23.9998Z" stroke="white" stroke-width="2"/>
<path fill-rule="evenodd" clip-rule="evenodd" d="M9.26903 1.41784C9.86096 1.41783 10.3284 0.854615 9.904 0.441953C9.62274 0.168451 9.23963 0 8.81526 0C8.391 0 8.00794 0.168451 7.72671 0.44196C7.30235 0.854656 7.76979 1.41786 8.36173 1.41785L9.26903 1.41784Z" fill="white"/>
<path fill-rule="evenodd" clip-rule="evenodd" d="M12.9109 2.22964C12.9109 2.78192 12.4632 3.22964 11.9109 3.22964H5.71875C5.16647 3.22964 4.71875 2.78192 4.71875 2.22964V2.12256C4.71875 1.57027 5.16647 1.12256 5.71875 1.12256H11.9109C12.4632 1.12256 12.9109 1.57027 12.9109 2.12256V2.22964Z" fill="white"/>
<path d="M5.27029 9.12979C5.4265 8.97359 5.67977 8.97359 5.83597 9.1298L6.79365 10.0875C6.94986 10.2437 7.20312 10.2437 7.35934 10.0875L12.1641 5.28287C12.3203 5.12665 12.5736 5.12667 12.7298 5.28291L12.9788 5.53197C13.135 5.68818 13.135 5.94142 12.9788 6.09762L7.48392 11.5926L7.35933 11.7172C7.20312 11.8734 6.94986 11.8734 6.79365 11.7172L6.66906 11.5926L5.02113 9.94462C4.86492 9.78841 4.86492 9.53514 5.02114 9.37893L5.27029 9.12979Z" fill="white"/>
<rect x="8" y="14" width="6" height="1" rx="0.5" fill="white"/>
<rect width="3" height="1" rx="0.5" transform="matrix(-1 0 0 1 7 14)" fill="white"/>
<rect x="8" y="17" width="6" height="1" rx="0.5" fill="white"/>
<rect width="3" height="1" rx="0.5" transform="matrix(-1 0 0 1 7 17)" fill="white"/>
<rect x="8" y="20" width="6" height="1" rx="0.5" fill="white"/>
<rect width="3" height="1" rx="0.5" transform="matrix(-1 0 0 1 7 20)" fill="white"/>
</svg>
