<?xml version="1.0"?>
<svg xmlns="http://www.w3.org/2000/svg" viewBox="0 0 24 24" fill="white">
    <path d="M 12 3 C 10.346 3 9 4.346 9 6 L 9 18 C 9 19.654 10.346 21 12 21 L 19 21 C 20.654 21 22 19.654 22 18 L 22 6 C 22 4.346 20.654 3 19 3 L 12 3 z M 8 4 C 6.402 4 5 5.402 5 7 L 5 17 C 5 18.598 6.402 20 8 20 L 8 18 C 7.462 18 7 17.45 7 17 L 7 7 C 7 6.55 7.462 6 8 6 L 8 4 z M 12 5 L 19 5 C 19.552 5 20 5.449 20 6 L 20 18 C 20 18.552 19.552 19 19 19 L 12 19 C 11.448 19 11 18.552 11 18 L 11 6 C 11 5.449 11.448 5 12 5 z M 4 6 C 3.29 6 2.867 6.28725 2.625 6.53125 C 1.999 7.16225 1.994 8.09175 2 8.84375 L 2 9.09375 L 2 15.53125 C 1.994 16.18525 1.98825 16.92075 2.53125 17.46875 C 2.87825 17.81875 3.372 18 4 18 L 4 6 z"/>
</svg>
